<?xml version='1.0' encoding='iso-8859-1'?>
<!DOCTYPE svg PUBLIC '-//W3C//DTD SVG 1.1//EN' 'http://www.w3.org/Graphics/SVG/1.1/DTD/svg11.dtd'>
<svg version="1.1" xmlns="http://www.w3.org/2000/svg" viewBox="0 0 452.255 452.255" xmlns:xlink="http://www.w3.org/1999/xlink" enable-background="new 0 0 452.255 452.255">
  <path d="m351.909,261.146c4.142,0 7.5-3.358 7.5-7.5v-51.109c0-4.142-3.358-7.5-7.5-7.5h-72.162c29.881-18.171 49.881-51.044 49.881-88.5 0-4.142-3.358-7.5-7.5-7.5-37.456,0-70.329,20-88.5,49.881v-38.191c53.582-3.855 96-48.678 96-103.226 0-4.142-3.358-7.5-7.5-7.5-43.406,0-80.65,26.861-96,64.831-15.35-37.971-52.594-64.832-96-64.832-4.142,0-7.5,3.358-7.5,7.5 0,54.548 42.418,99.371 96,103.226v38.191c-18.171-29.881-51.044-49.881-88.5-49.881-4.142,0-7.5,3.358-7.5,7.5 0,37.456 20,70.329 49.881,88.5h-72.162c-4.142,0-7.5,3.358-7.5,7.5v51.109c0,4.142 3.358,7.5 7.5,7.5h7.791l13.562,125h-21.354c-2.486,0-4.81,1.231-6.206,3.289-1.396,2.057-1.682,4.671-0.764,6.981l20.313,51.109c1.135,2.855 3.897,4.73 6.97,4.73h210.938c3.073,0 5.835-1.875 6.97-4.73l20.313-51.109c0.918-2.31 0.632-4.925-0.764-6.981-1.396-2.057-3.72-3.289-6.206-3.289h-21.353l13.562-125h7.79zm-37.626-146.764c-3.753,42.557-37.754,76.558-80.311,80.311 3.753-42.557 37.754-76.558 80.311-80.311zm0-99.036c-3.753,42.557-37.754,76.558-80.311,80.311 3.753-42.557 37.754-76.558 80.311-80.311zm-150.734,54.734c-14.853-14.853-23.776-34.055-25.581-54.734 42.557,3.753 76.562,37.758 80.315,80.315-20.679-1.805-39.881-10.728-54.734-25.581zm-25.58,44.302c42.557,3.753 76.562,37.758 80.315,80.315-20.679-1.804-39.882-10.728-54.734-25.581-14.853-14.852-23.777-34.055-25.581-54.734zm-30.123,95.656h236.563v36.109h-236.563v-36.109zm218.661,227.218h-200.758l-14.351-36.109h229.46l-14.351,36.109zm-11.039-51.109h-178.68l-13.562-125h205.804l-13.562,125z"/>
</svg>
