<?xml version="1.0" encoding="iso-8859-1"?>
<!-- Generator: Adobe Illustrator 19.0.0, SVG Export Plug-In . SVG Version: 6.00 Build 0)  -->
<svg version="1.1" id="Layer_1" xmlns="http://www.w3.org/2000/svg" xmlns:xlink="http://www.w3.org/1999/xlink" x="0px" y="0px"
	 viewBox="0 0 512 512" style="enable-background:new 0 0 512 512;" xml:space="preserve">
<g>
	<g>
		<g>
			<path d="M128,494.933H8.533c-4.71,0-8.533,3.823-8.533,8.533S3.823,512,8.533,512H128c4.71,0,8.533-3.823,8.533-8.533
				S132.71,494.933,128,494.933z"/>
			<path d="M104.883,432.717c26.752,26.769,65.357,28.126,72.823,28.126l44.16-0.026c0.452,0,0.836-0.188,1.263-0.247
				c0.674-0.111,1.357-0.145,1.997-0.41c1.041-0.435,1.988-1.058,2.782-1.852h0.009c0.213-0.213,0.299-0.503,0.495-0.742
				c0.503-0.623,1.015-1.246,1.323-1.997c0.461-1.084,0.674-2.227,0.666-3.379l-0.009-42.223
				c0.077-1.826,1.442-45.039-28.151-74.641c-26.76-26.786-65.374-28.143-72.841-28.143L85.333,307.2
				c-4.71,0-8.533,3.823-8.533,8.533l0.009,42.334C76.732,359.893,75.29,403.106,104.883,432.717z M93.867,358.417v-34.15
				l35.533-0.017c6.281,0,38.758,1.109,60.766,23.142c24.226,24.226,23.185,61.534,23.168,62.225v22.042L125.5,343.834
				c-3.337-3.337-8.73-3.337-12.066,0c-3.337,3.336-3.337,8.73,0,12.066l87.868,87.859l-23.595,0.017
				c-6.289,0-38.758-1.109-60.749-23.125C92.749,396.433,93.85,359.125,93.867,358.417z"/>
			<path d="M332.8,494.933h-17.067c-4.71,0-8.533,3.823-8.533,8.533s3.823,8.533,8.533,8.533H332.8c4.71,0,8.533-3.823,8.533-8.533
				S337.51,494.933,332.8,494.933z"/>
			<path d="M281.6,494.933h-17.067v-256h8.533c9.412,0,17.067-7.654,17.067-17.067v-24.243c30.097-13.193,51.2-43.238,51.2-78.157
				V76.8c0-4.71-3.823-8.533-8.533-8.533h-8.533v-51.2C324.267,7.654,316.612,0,307.2,0h-17.067
				c-9.412,0-17.067,7.654-17.067,17.067v51.2h-34.133v-51.2C238.933,7.654,231.279,0,221.867,0H204.8
				c-9.412,0-17.067,7.654-17.067,17.067v51.2H179.2c-4.71,0-8.533,3.823-8.533,8.533v42.667c0,34.918,21.103,64.964,51.2,78.157
				v24.243c0,9.412,7.654,17.067,17.067,17.067h8.533v256h-85.333c-4.71,0-8.533,3.823-8.533,8.533s3.823,8.533,8.533,8.533H281.6
				c4.71,0,8.533-3.823,8.533-8.533S286.31,494.933,281.6,494.933z M290.133,17.067H307.2v51.2h-17.067V17.067z M204.8,17.067
				h17.067v51.2H204.8V17.067z M187.733,119.467V85.333h136.533v34.133c0,37.641-30.626,68.267-68.267,68.267
				C218.359,187.733,187.733,157.107,187.733,119.467z M238.933,221.867v-18.79c5.521,1.126,11.221,1.724,17.067,1.724
				s11.554-0.597,17.067-1.724v18.79H238.933z"/>
			<path d="M503.467,494.933H366.933c-4.71,0-8.533,3.823-8.533,8.533s3.823,8.533,8.533,8.533h136.533
				c4.71,0,8.533-3.823,8.533-8.533S508.177,494.933,503.467,494.933z"/>
			<path d="M334.225,426.709c7.467,0,46.089-1.357,72.858-28.117c29.611-29.619,28.169-72.832,28.1-74.308v-42.667
				c0-4.71-3.823-8.533-8.533-8.533l-42.308,0.009l-1.801-0.026c-7.475,0-46.106,1.357-72.858,28.117
				c-29.628,29.619-28.151,72.841-28.083,74.3v42.598c-0.009,1.152,0.213,2.304,0.674,3.388c0.043,0.111,0.145,0.188,0.196,0.299
				c0.401,0.862,0.896,1.715,1.613,2.432c0.683,0.674,1.485,1.126,2.296,1.527c0.162,0.077,0.282,0.222,0.444,0.29
				c1.05,0.444,2.167,0.683,3.294,0.683c0.026,0,0.043-0.017,0.06-0.017l42.249-0.008L334.225,426.709z M398.566,309.717
				c-3.336-3.328-8.73-3.328-12.066,0l-87.834,87.834l-0.009-22.426c-0.017-0.375-1.289-37.495,23.091-61.875
				c21.999-22.007,54.494-23.117,60.791-23.117l35.575,0.017l0.009,34.475c0.017,0.367,1.109,37.675-23.108,61.892
				c-22.016,22.008-54.502,23.125-60.791,23.125l-23.501-0.017l87.842-87.834C401.903,318.456,401.903,313.054,398.566,309.717z"/>
		</g>
	</g>
</g>
<g>
</g>
<g>
</g>
<g>
</g>
<g>
</g>
<g>
</g>
<g>
</g>
<g>
</g>
<g>
</g>
<g>
</g>
<g>
</g>
<g>
</g>
<g>
</g>
<g>
</g>
<g>
</g>
<g>
</g>
</svg>
