<?xml version="1.0" encoding="iso-8859-1"?>
<!-- Generator: Adobe Illustrator 19.0.0, SVG Export Plug-In . SVG Version: 6.00 Build 0)  -->
<svg version="1.1" id="Capa_1" xmlns="http://www.w3.org/2000/svg" xmlns:xlink="http://www.w3.org/1999/xlink" x="0px" y="0px"
	 viewBox="0 0 463 463" style="enable-background:new 0 0 463 463;" xml:space="preserve">
<g>
	<path d="M120,217c-7.995,0-14.5,6.505-14.5,14.5S112.005,246,120,246s14.5-6.505,14.5-14.5S127.995,217,120,217z"/>
	<path d="M368,9c-5.248,0-9.84,2.812-12.386,7H335.5V8.5c0-4.687-3.813-8.5-8.5-8.5h-63c-10.336,0-19.128,6.71-22.266,16h-19.469
		C219.128,6.71,210.336,0,200,0c-9.344,0-17.43,5.483-21.215,13.399c-0.147,0.239-0.285,0.487-0.407,0.747l-93.5,199.167
		c-0.112,0.238-0.209,0.478-0.294,0.721c-2.61,5.27-4.084,11.198-4.084,17.466c0,19.216,13.795,35.262,32,38.777v42.958
		c-9.29,3.138-16,11.93-16,22.266s6.71,19.128,16,22.266V383.5c0,4.142,3.357,7.5,7.5,7.5h24.5v25H120
		c-12.958,0-23.5,10.542-23.5,23.5v16c0,4.142,3.357,7.5,7.5,7.5h192c4.143,0,7.5-3.358,7.5-7.5v-16c0-12.958-10.542-23.5-23.5-23.5
		h-24.5v-25H280c4.143,0,7.5-3.358,7.5-7.5v-56c0-4.142-3.357-7.5-7.5-7.5h-38.268l-82.666-82.666
		c0.283-1.904,0.434-3.852,0.434-5.834c0-14.103-7.435-26.496-18.585-33.486l58.092-151.039C199.336,46.989,199.667,47,200,47
		c10.336,0,19.128-6.71,22.266-16h19.469c3.138,9.29,11.93,16,22.266,16h63c4.687,0,8.5-3.813,8.5-8.5V31h20.114
		c2.546,4.188,7.138,7,12.386,7c7.995,0,14.5-6.505,14.5-14.5S375.995,9,368,9z M127.5,313.234v-41.002L175.268,320h-37.627
		C134.941,316.93,131.455,314.57,127.5,313.234z M120,327c4.687,0,8.5,3.813,8.5,8.5s-3.813,8.5-8.5,8.5s-8.5-3.813-8.5-8.5
		S115.313,327,120,327z M159.5,391h9v25h-9V391z M192.5,391v25h-9v-25H192.5z M216.5,391v25h-9v-25H216.5z M288.5,439.5v8.5h-177
		v-8.5c0-4.687,3.813-8.5,8.5-8.5h160C284.687,431,288.5,434.813,288.5,439.5z M240.5,416h-9v-25h9V416z M272.5,376h-145v-18.234
		c9.29-3.138,16-11.93,16-22.266c0-0.168-0.009-0.333-0.013-0.5h46.781l21.113,21.112C215.816,360.554,221.719,363,228,363
		s12.184-2.446,16.616-6.884c5.728-5.729,7.874-13.704,6.439-21.116H272.5V376z M234.009,333.491
		c1.606,1.606,2.491,3.74,2.491,6.009s-0.885,4.403-2.494,6.013C232.404,347.117,230.271,348,228,348s-4.404-0.883-6.009-2.491
		l-80.74-80.739c4.822-3.091,8.928-7.197,12.019-12.019L234.009,333.491z M120,256c-13.51,0-24.5-10.991-24.5-24.5
		S106.49,207,120,207s24.5,10.991,24.5,24.5S133.51,256,120,256z M126.919,192.619C124.67,192.22,122.361,192,120,192
		c-3.112,0-6.136,0.373-9.042,1.057l72.01-153.391c0.643,0.677,1.322,1.32,2.041,1.917L126.919,192.619z M200,32
		c-4.687,0-8.5-3.813-8.5-8.5s3.813-8.5,8.5-8.5s8.5,3.813,8.5,8.5S204.687,32,200,32z M255.5,23.5c0-4.687,3.813-8.5,8.5-8.5h32.5
		v17H264C259.313,32,255.5,28.187,255.5,23.5z M320.5,32h-9V15h9V32z"/>
</g>
<g>
</g>
<g>
</g>
<g>
</g>
<g>
</g>
<g>
</g>
<g>
</g>
<g>
</g>
<g>
</g>
<g>
</g>
<g>
</g>
<g>
</g>
<g>
</g>
<g>
</g>
<g>
</g>
<g>
</g>
</svg>
