<?xml version="1.0" encoding="iso-8859-1"?>
<!-- Generator: Adobe Illustrator 19.0.0, SVG Export Plug-In . SVG Version: 6.00 Build 0)  -->
<svg version="1.1" id="Layer_1" xmlns="http://www.w3.org/2000/svg" xmlns:xlink="http://www.w3.org/1999/xlink" x="0px" y="0px"
	 viewBox="0 0 490 490" style="enable-background:new 0 0 490 490;" xml:space="preserve">
<g>
	<g>
		<g>
			<path d="M304.3,345.4H185.7c-11.4,0-20.8,9.4-20.8,20.8c0,11.4,9.4,20.8,20.8,20.8h118.6c11.4,0,20.8-9.4,20.8-20.8
				C325.1,354.8,315.7,345.4,304.3,345.4z"/>
			<path d="M224.2,245.5c0-34.3-28.1-61.4-62.4-61.4s-62.4,27-62.4,61.4c0,34.3,28.1,61.4,62.4,61.4S224.2,279.9,224.2,245.5z
				 M182.6,245.5c0,11.4-9.4,20.8-20.8,20.8c-11.4,0-20.8-9.3-20.8-20.8c0-11.4,9.4-20.8,20.8-20.8
				C174.3,224.7,183.6,234.1,182.6,245.5z"/>
			<path d="M328.2,184.1c-34.3,0-62.4,27-62.4,61.4c0,34.3,28.1,61.4,62.4,61.4c33.3,0,62.4-27,62.4-61.4
				C390.6,211.2,362.6,184.1,328.2,184.1z M328.2,266.3c-11.4,0-20.8-9.4-20.8-20.8c0-11.4,9.4-20.8,20.8-20.8
				c11.4,0,20.8,9.4,20.8,20.8C349,257,339.7,266.3,328.2,266.3z"/>
			<path d="M455.1,164.6V39.9c7.3-3.2,12.5-10.6,12.5-19c0-11.4-9.4-20.8-20.8-20.8h-29.1c-11.4,0-20.8,9.4-20.8,20.8
				c0,10,7.2,18.4,16.6,20.4v77.5C369.7,81.9,310.4,59.3,245,59.3c-65.9,0-125.7,23-169.6,60.3V39.9c7.7-3.2,13.5-10.6,13.5-19.1
				C88.9,9.4,79.5,0,68.1,0H39C27.6,0,18.2,9.4,18.2,20.8c0,9.6,6.7,17.8,15.6,20.1v125.3c-21.2,31.9-33.3,69-33.3,108.5
				C0.5,393.2,109.8,490,245,490s244.5-96.8,244.5-215.4C489.5,234.5,477,196.9,455.1,164.6z M245,449.4
				c-112.4,0-203.9-78-203.9-174.8S132.6,99.8,245,99.8s203.9,78,203.9,174.8S357.4,449.4,245,449.4z"/>
		</g>
	</g>
</g>
<g>
</g>
<g>
</g>
<g>
</g>
<g>
</g>
<g>
</g>
<g>
</g>
<g>
</g>
<g>
</g>
<g>
</g>
<g>
</g>
<g>
</g>
<g>
</g>
<g>
</g>
<g>
</g>
<g>
</g>
</svg>
